name Walk6.mot
datacolumns 19
datarows 10
range 1.70700000 1.71600000
endheader

                time	   L_ground_force_vx	   L_ground_force_vy	   L_ground_force_vz	   L_ground_force_px	   L_ground_force_py	   L_ground_force_pz	   R_ground_force_vx	   R_ground_force_vy	   R_ground_force_vz	   R_ground_force_px	   R_ground_force_py	   R_ground_force_pz	   L_ground_torque_x	   L_ground_torque_y	   L_ground_torque_z	   R_ground_torque_x	   R_ground_torque_y	   R_ground_torque_z	
          1.70700000	         27.98877139	        682.50936317	         41.53156307	         -0.40162362	          0.00000000	         -0.05393577	         -0.03187147	          0.29009787	          0.02932356	          0.00009635	          0.00000000	          0.00009147	          0.00000000	         -0.42789253	          0.00000000	          0.00000000	         -0.00670660	          0.00000000	
          1.70800000	         28.33823363	        683.77846119	         41.64887680	         -0.40128022	          0.00000000	         -0.05396873	         -0.03416625	          0.30290425	          0.03035020	          0.00009928	          0.00000000	          0.00009406	          0.00000000	         -0.42611578	          0.00000000	          0.00000000	         -0.00685149	          0.00000000	
          1.70900000	         28.68888363	        685.04867643	         41.76736948	         -0.40093495	          0.00000000	         -0.05400217	         -0.03653316	          0.31564970	          0.03134690	          0.00010208	          0.00000000	          0.00009650	          0.00000000	         -0.42410976	          0.00000000	          0.00000000	         -0.00698154	          0.00000000	
          1.71000000	         29.04065309	        686.31958068	         41.88701787	         -0.40058778	          0.00000000	         -0.05403613	         -0.03896914	          0.32827591	          0.03230677	          0.00010471	          0.00000000	          0.00009876	          0.00000000	         -0.42186705	          0.00000000	          0.00000000	         -0.00709484	          0.00000000	
          1.71100000	         29.39346786	        687.59073630	         42.00779336	         -0.40023867	          0.00000000	         -0.05407062	         -0.04147054	          0.34071966	          0.03322240	          0.00010715	          0.00000000	          0.00010084	          0.00000000	         -0.41937992	          0.00000000	          0.00000000	         -0.00718937	          0.00000000	
          1.71200000	         29.74724793	        688.86169709	         42.12966169	         -0.39988758	          0.00000000	         -0.05410566	         -0.04403312	          0.35291261	          0.03408591	          0.00010937	          0.00000000	          0.00010268	          0.00000000	         -0.41664044	          0.00000000	          0.00000000	         -0.00726300	          0.00000000	
          1.71300000	         30.10190788	        690.13200906	         42.25258285	         -0.39953448	          0.00000000	         -0.05414128	         -0.04665197	          0.36478109	          0.03488890	          0.00011135	          0.00000000	          0.00010428	          0.00000000	         -0.41364071	          0.00000000	          0.00000000	         -0.00731347	          0.00000000	
          1.71400000	         30.45735757	        691.40121083	         42.37651084	         -0.39917932	          0.00000000	         -0.05417750	         -0.04932151	          0.37624593	          0.03562241	          0.00011306	          0.00000000	          0.00010559	          0.00000000	         -0.41037309	          0.00000000	          0.00000000	         -0.00733843	          0.00000000	
          1.71500000	         30.81350278	        692.66883377	         42.50139370	         -0.39882208	          0.00000000	         -0.05421434	         -0.05203542	          0.38722229	          0.03627697	          0.00011446	          0.00000000	          0.00010659	          0.00000000	         -0.40683049	          0.00000000	          0.00000000	         -0.00733540	          0.00000000	
          1.71600000	         31.17024581	        693.93440225	         42.62717344	         -0.39846272	          0.00000000	         -0.05425183	         -0.05478663	          0.39761943	          0.03684253	          0.00011551	          0.00000000	          0.00010724	          0.00000000	         -0.40300641	          0.00000000	          0.00000000	         -0.00730179	          0.00000000	
